<?xml version="1.0" standalone="no"?>
<!DOCTYPE svg PUBLIC "-//W3C//DTD SVG 20010904//EN"
 "http://www.w3.org/TR/2001/REC-SVG-20010904/DTD/svg10.dtd">
<svg version="1.0" xmlns="http://www.w3.org/2000/svg"
 width="1250.000000pt" height="1250.000000pt" viewBox="0 0 1250.000000 1250.000000"
 preserveAspectRatio="xMidYMid meet">
<metadata>
Created by potrace 1.11, written by Peter Selinger 2001-2013
</metadata>
<g transform="translate(0.000000,1250.000000) scale(0.100000,-0.100000)"
fill="#000000" stroke="none">
<path d="M5909 12016 c-2 -2 -51 -6 -109 -10 -121 -8 -181 -13 -368 -36 -48
-6 -94 -13 -102 -15 -8 -2 -35 -7 -60 -10 -25 -3 -83 -13 -130 -22 -1019 -186
-1986 -662 -2790 -1371 -79 -69 -366 -355 -435 -432 -97 -109 -257 -303 -343
-415 -179 -235 -396 -586 -540 -873 -168 -335 -358 -832 -417 -1092 -1 -8 -10
-40 -19 -70 -18 -65 -82 -357 -90 -415 -3 -22 -7 -49 -9 -60 -3 -11 -8 -42
-11 -68 -4 -27 -9 -57 -11 -67 -4 -22 -26 -203 -30 -250 -23 -273 -27 -348
-27 -575 0 -234 6 -361 27 -575 13 -127 17 -162 29 -245 11 -74 19 -123 22
-140 2 -11 9 -49 15 -84 5 -36 12 -67 14 -70 2 -4 6 -27 10 -51 3 -25 8 -53
11 -62 3 -9 7 -27 9 -40 3 -13 16 -70 31 -128 190 -773 556 -1525 1050 -2160
54 -69 100 -127 103 -130 3 -3 31 -34 61 -70 146 -173 470 -498 641 -643 385
-325 759 -573 1194 -789 127 -64 206 -99 480 -214 112 -46 528 -180 655 -209
220 -52 453 -99 543 -110 22 -3 51 -7 66 -9 49 -8 106 -15 161 -21 30 -4 66
-8 80 -10 22 -3 124 -11 274 -21 73 -5 585 -5 621 0 17 2 80 7 140 11 61 4
117 8 125 10 8 2 51 6 95 11 44 4 82 8 85 9 3 1 32 5 65 9 33 5 69 10 80 12
28 6 64 12 105 18 85 13 323 64 445 96 573 150 1095 374 1600 687 374 231 704
493 1020 808 239 238 347 361 225 254 -41 -36 -113 -96 -160 -132 -47 -37 -89
-71 -95 -75 -154 -122 -465 -320 -660 -421 -30 -16 -61 -33 -68 -38 -19 -14
-361 -173 -372 -173 -3 0 -24 -9 -48 -20 -197 -91 -705 -241 -967 -285 -19 -3
-42 -8 -50 -10 -8 -2 -37 -7 -65 -11 -27 -3 -57 -8 -67 -9 -9 -2 -38 -6 -65
-10 -26 -4 -58 -8 -70 -10 -12 -2 -57 -7 -100 -10 -43 -4 -87 -9 -98 -11 -31
-6 -328 -18 -440 -17 -118 0 -400 12 -429 18 -12 2 -52 6 -91 9 -179 14 -535
78 -755 135 -115 30 -169 46 -295 87 -217 71 -452 167 -660 270 -104 51 -201
100 -215 108 -14 8 -83 50 -155 92 -207 122 -403 259 -605 423 -105 85 -118
96 -239 207 -129 119 -330 328 -417 434 -16 19 -31 37 -35 40 -5 5 -69 84
-121 150 -116 149 -338 476 -338 498 0 5 -5 13 -12 20 -38 38 -243 446 -331
657 -138 335 -252 733 -311 1085 -3 19 -8 45 -10 57 -3 13 -12 85 -21 160 -9
76 -18 148 -20 159 -9 56 -19 309 -19 484 0 264 17 508 49 720 27 178 34 215
46 270 6 25 13 59 16 75 2 17 9 48 15 70 5 22 11 47 13 55 5 26 53 202 73 270
37 124 124 369 157 445 8 17 26 59 40 95 133 325 429 827 647 1100 178 222
240 292 423 476 174 175 270 262 410 375 78 62 96 76 180 139 22 16 45 34 51
39 59 49 338 224 515 323 501 280 1111 487 1684 572 74 11 114 16 170 22 33 3
74 8 90 10 202 26 832 26 1030 -1 16 -2 73 -9 125 -16 52 -6 104 -13 115 -15
11 -2 38 -7 60 -9 33 -5 304 -60 395 -80 139 -32 518 -152 605 -191 17 -7 55
-23 85 -34 437 -167 1060 -545 1380 -837 19 -17 49 -42 65 -54 l30 -23 -26 30
c-87 98 -129 143 -258 272 -201 200 -387 362 -616 534 -236 178 -571 385 -833
518 -132 66 -330 160 -338 160 -2 0 -27 11 -56 24 -231 104 -720 258 -1008
316 -73 15 -91 19 -108 24 -9 3 -42 8 -72 11 -30 4 -58 9 -61 11 -4 2 -24 6
-45 10 -22 3 -49 7 -60 9 -12 2 -48 7 -80 10 -33 4 -68 9 -79 11 -11 2 -69 9
-130 14 -60 6 -126 13 -145 16 -39 5 -736 15 -741 10z"/>
<path d="M7167 10954 c-1 -1 -56 -5 -122 -8 -66 -4 -131 -8 -145 -10 -14 -3
-54 -7 -90 -10 -101 -10 -151 -16 -205 -26 -27 -5 -68 -12 -90 -15 -141 -19
-460 -99 -660 -164 -651 -211 -1267 -577 -1769 -1051 -48 -45 -199 -198 -266
-269 -47 -50 -226 -269 -287 -351 -73 -99 -203 -287 -203 -295 0 -2 -13 -23
-29 -47 -15 -24 -41 -65 -56 -93 -15 -27 -31 -54 -35 -60 -20 -26 -147 -278
-201 -402 -98 -220 -213 -538 -235 -650 -1 -6 -7 -27 -13 -45 -6 -18 -13 -44
-15 -58 -3 -14 -17 -74 -30 -135 -22 -94 -36 -169 -60 -305 -5 -26 -10 -68
-21 -160 -4 -30 -9 -66 -11 -80 -25 -159 -25 -785 1 -965 2 -16 7 -55 10 -85
5 -49 19 -151 30 -219 3 -14 9 -47 14 -75 6 -28 13 -62 15 -76 40 -224 130
-528 233 -790 94 -239 183 -420 338 -692 36 -64 125 -199 191 -294 82 -115 92
-130 182 -242 580 -724 1375 -1270 2257 -1549 116 -36 386 -108 445 -118 19
-3 80 -15 135 -25 55 -11 120 -22 145 -25 25 -3 56 -7 70 -10 14 -2 50 -7 80
-10 30 -4 69 -8 85 -10 203 -25 730 -25 932 0 21 3 76 10 123 15 407 52 789
150 1165 300 252 100 628 296 835 436 193 130 377 267 466 349 6 6 40 35 75
65 90 76 370 359 398 401 14 20 15 26 4 14 -10 -11 -40 -38 -68 -60 -27 -22
-57 -46 -65 -54 -56 -54 -306 -228 -457 -319 -448 -270 -962 -462 -1437 -537
-21 -4 -48 -8 -60 -11 -11 -2 -59 -9 -106 -14 -47 -6 -98 -13 -115 -15 -163
-23 -698 -24 -835 -1 -14 2 -56 7 -94 11 -38 4 -79 9 -90 10 -12 2 -64 11
-116 21 -52 9 -108 18 -124 21 -67 11 -348 87 -465 125 -518 169 -1026 459
-1440 823 -121 106 -394 390 -491 511 -105 131 -285 390 -336 484 -10 19 -24
42 -31 50 -16 20 -171 329 -207 410 -15 36 -32 74 -37 85 -48 110 -140 389
-180 545 -34 131 -80 371 -94 489 -4 30 -8 61 -10 70 -11 61 -19 254 -20 471
0 261 7 389 30 545 2 17 7 53 10 80 11 80 54 291 85 416 106 420 310 878 553
1244 55 83 184 263 197 275 3 3 21 25 40 50 19 25 39 50 45 56 5 6 35 40 65
75 73 84 287 299 374 374 37 33 73 65 80 70 135 119 396 300 614 426 182 106
461 233 672 308 82 29 343 107 385 115 11 3 49 11 85 20 91 21 351 64 435 71
39 3 77 8 85 10 24 6 256 17 375 18 109 0 395 -12 405 -18 3 -1 39 -6 80 -9
41 -4 100 -11 130 -16 30 -5 69 -11 85 -13 27 -4 114 -20 170 -31 180 -35 554
-152 743 -232 156 -66 371 -174 496 -249 61 -36 114 -65 118 -65 4 0 8 -4 8
-10 0 -5 4 -10 10 -10 18 0 399 -277 440 -320 26 -27 81 -71 70 -55 -52 71
-279 297 -440 438 -189 166 -468 370 -650 476 -30 18 -77 46 -105 63 -82 51
-391 203 -533 262 -158 66 -547 199 -547 186 0 -1 -12 3 -28 9 -15 6 -38 13
-50 15 -12 3 -58 14 -102 25 -67 17 -186 40 -330 66 -107 18 -351 44 -485 51
-96 5 -419 11 -423 8z"/>
</g>
</svg>
